<mxfile host="app.diagrams.net" modified="2022-03-16T14:51:36.932Z" agent="5.0 (Windows NT 10.0; Win64; x64) AppleWebKit/537.36 (KHTML, like Gecko) Chrome/99.0.4844.74 Safari/537.36" etag="pmxvZYLmXHS5yiQqwZTV" version="17.1.2" type="github">
  <diagram id="kgpKYQtTHZ0yAKxKKP6v" name="Page-1">
    <mxGraphModel dx="1476" dy="790" grid="1" gridSize="10" guides="1" tooltips="1" connect="1" arrows="1" fold="1" page="1" pageScale="1" pageWidth="850" pageHeight="1100" math="0" shadow="0">
      <root>
        <mxCell id="0" />
        <mxCell id="1" parent="0" />
        <mxCell id="aBUU-kbgYv9Q9nRCDCs9-2" value="Chat" style="shape=umlBoundary;whiteSpace=wrap;html=1;" parent="1" vertex="1">
          <mxGeometry x="250" y="50" width="100" height="80" as="geometry" />
        </mxCell>
        <mxCell id="aBUU-kbgYv9Q9nRCDCs9-3" value="contrôleur" style="ellipse;shape=umlControl;whiteSpace=wrap;html=1;" parent="1" vertex="1">
          <mxGeometry x="440" y="50" width="70" height="80" as="geometry" />
        </mxCell>
        <mxCell id="aBUU-kbgYv9Q9nRCDCs9-4" value="TeamChat-&lt;br&gt;Teacher-&lt;br&gt;Message" style="ellipse;shape=umlEntity;whiteSpace=wrap;html=1;" parent="1" vertex="1">
          <mxGeometry x="630" y="60" width="80" height="80" as="geometry" />
        </mxCell>
        <mxCell id="aBUU-kbgYv9Q9nRCDCs9-10" value="Enseignants" style="shape=umlActor;verticalLabelPosition=bottom;verticalAlign=top;html=1;outlineConnect=0;" parent="1" vertex="1">
          <mxGeometry x="130" y="50" width="30" height="60" as="geometry" />
        </mxCell>
        <mxCell id="aBUU-kbgYv9Q9nRCDCs9-11" value="" style="endArrow=none;dashed=1;html=1;rounded=0;startArrow=none;" parent="1" source="aBUU-kbgYv9Q9nRCDCs9-72" edge="1">
          <mxGeometry width="50" height="50" relative="1" as="geometry">
            <mxPoint x="140" y="1430" as="sourcePoint" />
            <mxPoint x="140" y="130" as="targetPoint" />
          </mxGeometry>
        </mxCell>
        <mxCell id="aBUU-kbgYv9Q9nRCDCs9-12" value="" style="endArrow=none;dashed=1;html=1;rounded=0;startArrow=none;" parent="1" source="aBUU-kbgYv9Q9nRCDCs9-70" edge="1">
          <mxGeometry width="50" height="50" relative="1" as="geometry">
            <mxPoint x="310" y="1440" as="sourcePoint" />
            <mxPoint x="310" y="130" as="targetPoint" />
          </mxGeometry>
        </mxCell>
        <mxCell id="aBUU-kbgYv9Q9nRCDCs9-13" value="" style="endArrow=none;dashed=1;html=1;rounded=0;" parent="1" edge="1">
          <mxGeometry width="50" height="50" relative="1" as="geometry">
            <mxPoint x="474" y="1090" as="sourcePoint" />
            <mxPoint x="474.29" y="130" as="targetPoint" />
          </mxGeometry>
        </mxCell>
        <mxCell id="aBUU-kbgYv9Q9nRCDCs9-15" value="Connection" style="rounded=0;whiteSpace=wrap;html=1;" parent="1" vertex="1">
          <mxGeometry x="120" y="170" width="620" height="60" as="geometry" />
        </mxCell>
        <mxCell id="aBUU-kbgYv9Q9nRCDCs9-17" value="REF" style="rounded=0;whiteSpace=wrap;html=1;" parent="1" vertex="1">
          <mxGeometry x="120" y="170" width="40" height="20" as="geometry" />
        </mxCell>
        <mxCell id="aBUU-kbgYv9Q9nRCDCs9-24" value="" style="endArrow=classic;html=1;rounded=0;entryX=-0.33;entryY=0.114;entryDx=0;entryDy=0;entryPerimeter=0;" parent="1" target="aBUU-kbgYv9Q9nRCDCs9-70" edge="1">
          <mxGeometry relative="1" as="geometry">
            <mxPoint x="140" y="320" as="sourcePoint" />
            <mxPoint x="310" y="320" as="targetPoint" />
            <Array as="points">
              <mxPoint x="200.5" y="320" />
            </Array>
          </mxGeometry>
        </mxCell>
        <mxCell id="aBUU-kbgYv9Q9nRCDCs9-25" value="Cliquer sur&amp;nbsp;&lt;br&gt;l&#39;icone messages" style="edgeLabel;html=1;align=center;verticalAlign=middle;resizable=0;points=[];" parent="aBUU-kbgYv9Q9nRCDCs9-24" vertex="1" connectable="0">
          <mxGeometry x="0.0281" y="-2" relative="1" as="geometry">
            <mxPoint as="offset" />
          </mxGeometry>
        </mxCell>
        <mxCell id="aBUU-kbgYv9Q9nRCDCs9-26" value="" style="endArrow=classic;html=1;rounded=0;entryX=-0.05;entryY=0.571;entryDx=0;entryDy=0;entryPerimeter=0;" parent="1" edge="1">
          <mxGeometry relative="1" as="geometry">
            <mxPoint x="310" y="360" as="sourcePoint" />
            <mxPoint x="469.5" y="360.3299999999999" as="targetPoint" />
            <Array as="points">
              <mxPoint x="370.5" y="360" />
            </Array>
          </mxGeometry>
        </mxCell>
        <mxCell id="aBUU-kbgYv9Q9nRCDCs9-27" value="Demande d&#39;accès&lt;br&gt;à la page tout&lt;br&gt;les messages" style="edgeLabel;html=1;align=center;verticalAlign=middle;resizable=0;points=[];" parent="aBUU-kbgYv9Q9nRCDCs9-26" vertex="1" connectable="0">
          <mxGeometry x="0.0281" y="-2" relative="1" as="geometry">
            <mxPoint as="offset" />
          </mxGeometry>
        </mxCell>
        <mxCell id="aBUU-kbgYv9Q9nRCDCs9-28" value="Afficher les groupes" style="endArrow=classic;html=1;rounded=0;entryX=1.312;entryY=0.742;entryDx=0;entryDy=0;entryPerimeter=0;" parent="1" edge="1">
          <mxGeometry relative="1" as="geometry">
            <mxPoint x="470.44000000000005" y="440.4000000000001" as="sourcePoint" />
            <mxPoint x="310" y="440" as="targetPoint" />
            <Array as="points" />
          </mxGeometry>
        </mxCell>
        <mxCell id="aBUU-kbgYv9Q9nRCDCs9-30" value="Groupes affiché" style="endArrow=classic;html=1;rounded=0;entryX=1.02;entryY=0.212;entryDx=0;entryDy=0;entryPerimeter=0;exitX=0;exitY=0.209;exitDx=0;exitDy=0;exitPerimeter=0;" parent="1" source="aBUU-kbgYv9Q9nRCDCs9-70" target="aBUU-kbgYv9Q9nRCDCs9-72" edge="1">
          <mxGeometry x="-0.1395" y="1" relative="1" as="geometry">
            <mxPoint x="310.22" y="440.4000000000001" as="sourcePoint" />
            <mxPoint x="140" y="440" as="targetPoint" />
            <Array as="points" />
            <mxPoint as="offset" />
          </mxGeometry>
        </mxCell>
        <mxCell id="aBUU-kbgYv9Q9nRCDCs9-31" value="" style="endArrow=classic;html=1;rounded=0;entryX=-0.432;entryY=0.348;entryDx=0;entryDy=0;entryPerimeter=0;" parent="1" target="aBUU-kbgYv9Q9nRCDCs9-70" edge="1">
          <mxGeometry relative="1" as="geometry">
            <mxPoint x="140" y="504" as="sourcePoint" />
            <mxPoint x="310" y="480" as="targetPoint" />
            <Array as="points" />
          </mxGeometry>
        </mxCell>
        <mxCell id="aBUU-kbgYv9Q9nRCDCs9-32" value="Cliquer sur un groupe&lt;br&gt;précis pour afficher&lt;br&gt;ses messages" style="edgeLabel;html=1;align=center;verticalAlign=middle;resizable=0;points=[];" parent="aBUU-kbgYv9Q9nRCDCs9-31" vertex="1" connectable="0">
          <mxGeometry x="0.0281" y="-2" relative="1" as="geometry">
            <mxPoint as="offset" />
          </mxGeometry>
        </mxCell>
        <mxCell id="aBUU-kbgYv9Q9nRCDCs9-33" value="" style="endArrow=classic;html=1;rounded=0;entryX=-0.05;entryY=0.571;entryDx=0;entryDy=0;entryPerimeter=0;" parent="1" edge="1">
          <mxGeometry relative="1" as="geometry">
            <mxPoint x="310" y="530" as="sourcePoint" />
            <mxPoint x="469.5" y="530.3299999999999" as="targetPoint" />
            <Array as="points">
              <mxPoint x="370.5" y="530" />
            </Array>
          </mxGeometry>
        </mxCell>
        <mxCell id="aBUU-kbgYv9Q9nRCDCs9-34" value="Demande d&#39;accès&lt;br&gt;au messages&lt;br&gt;d&#39;un groupe&amp;nbsp;" style="edgeLabel;html=1;align=center;verticalAlign=middle;resizable=0;points=[];" parent="aBUU-kbgYv9Q9nRCDCs9-33" vertex="1" connectable="0">
          <mxGeometry x="0.0281" y="-2" relative="1" as="geometry">
            <mxPoint as="offset" />
          </mxGeometry>
        </mxCell>
        <mxCell id="aBUU-kbgYv9Q9nRCDCs9-35" value="" style="endArrow=classic;html=1;rounded=0;" parent="1" edge="1">
          <mxGeometry relative="1" as="geometry">
            <mxPoint x="480" y="560" as="sourcePoint" />
            <mxPoint x="660" y="560" as="targetPoint" />
            <Array as="points">
              <mxPoint x="550.5" y="560" />
            </Array>
          </mxGeometry>
        </mxCell>
        <mxCell id="aBUU-kbgYv9Q9nRCDCs9-36" value="Rechercher les&amp;nbsp;&lt;br&gt;messages du groupes" style="edgeLabel;html=1;align=center;verticalAlign=middle;resizable=0;points=[];" parent="aBUU-kbgYv9Q9nRCDCs9-35" vertex="1" connectable="0">
          <mxGeometry x="0.0281" y="-2" relative="1" as="geometry">
            <mxPoint x="-3" as="offset" />
          </mxGeometry>
        </mxCell>
        <mxCell id="aBUU-kbgYv9Q9nRCDCs9-37" value="Afficher les messages&lt;br&gt;du groupe" style="endArrow=classic;html=1;rounded=0;" parent="1" edge="1">
          <mxGeometry x="-0.5" relative="1" as="geometry">
            <mxPoint x="670" y="600" as="sourcePoint" />
            <mxPoint x="310" y="600" as="targetPoint" />
            <Array as="points" />
            <mxPoint as="offset" />
          </mxGeometry>
        </mxCell>
        <mxCell id="aBUU-kbgYv9Q9nRCDCs9-38" value="Mesaage du groupe&lt;br&gt;affiché" style="endArrow=classic;html=1;rounded=0;" parent="1" edge="1">
          <mxGeometry relative="1" as="geometry">
            <mxPoint x="310.22" y="640.4000000000001" as="sourcePoint" />
            <mxPoint x="150" y="640" as="targetPoint" />
            <Array as="points" />
          </mxGeometry>
        </mxCell>
        <mxCell id="aBUU-kbgYv9Q9nRCDCs9-50" value="" style="endArrow=none;html=1;rounded=0;" parent="1" edge="1">
          <mxGeometry width="50" height="50" relative="1" as="geometry">
            <mxPoint x="40" y="680" as="sourcePoint" />
            <mxPoint x="760" y="680" as="targetPoint" />
          </mxGeometry>
        </mxCell>
        <mxCell id="aBUU-kbgYv9Q9nRCDCs9-51" value="" style="endArrow=none;html=1;rounded=0;" parent="1" edge="1">
          <mxGeometry width="50" height="50" relative="1" as="geometry">
            <mxPoint x="40" y="1060" as="sourcePoint" />
            <mxPoint x="40" y="680" as="targetPoint" />
          </mxGeometry>
        </mxCell>
        <mxCell id="aBUU-kbgYv9Q9nRCDCs9-52" value="" style="endArrow=none;html=1;rounded=0;" parent="1" edge="1">
          <mxGeometry width="50" height="50" relative="1" as="geometry">
            <mxPoint x="760" y="1060" as="sourcePoint" />
            <mxPoint x="760" y="680" as="targetPoint" />
          </mxGeometry>
        </mxCell>
        <mxCell id="aBUU-kbgYv9Q9nRCDCs9-53" value="OPT" style="rounded=0;whiteSpace=wrap;html=1;" parent="1" vertex="1">
          <mxGeometry x="40" y="680" width="40" height="20" as="geometry" />
        </mxCell>
        <mxCell id="aBUU-kbgYv9Q9nRCDCs9-54" value="[Ajouter &lt;br&gt;un&lt;br&gt;message]" style="text;html=1;strokeColor=none;fillColor=none;align=center;verticalAlign=middle;whiteSpace=wrap;rounded=0;" parent="1" vertex="1">
          <mxGeometry x="60" y="710" width="60" height="30" as="geometry" />
        </mxCell>
        <mxCell id="aBUU-kbgYv9Q9nRCDCs9-63" value="" style="endArrow=classic;html=1;rounded=0;" parent="1" edge="1">
          <mxGeometry relative="1" as="geometry">
            <mxPoint x="480" y="870" as="sourcePoint" />
            <mxPoint x="660" y="870" as="targetPoint" />
            <Array as="points">
              <mxPoint x="530.5" y="870" />
            </Array>
          </mxGeometry>
        </mxCell>
        <mxCell id="aBUU-kbgYv9Q9nRCDCs9-64" value="Ajouter le message" style="edgeLabel;html=1;align=center;verticalAlign=middle;resizable=0;points=[];" parent="aBUU-kbgYv9Q9nRCDCs9-63" vertex="1" connectable="0">
          <mxGeometry x="0.0281" y="-2" relative="1" as="geometry">
            <mxPoint x="-18" as="offset" />
          </mxGeometry>
        </mxCell>
        <mxCell id="aBUU-kbgYv9Q9nRCDCs9-67" value="Afficher le méssage dans&lt;br&gt;la discussion" style="endArrow=classic;html=1;rounded=0;" parent="1" edge="1">
          <mxGeometry x="-0.4286" relative="1" as="geometry">
            <mxPoint x="660" y="920" as="sourcePoint" />
            <mxPoint x="310" y="920" as="targetPoint" />
            <Array as="points" />
            <mxPoint as="offset" />
          </mxGeometry>
        </mxCell>
        <mxCell id="aBUU-kbgYv9Q9nRCDCs9-68" value="Méssage affiché" style="endArrow=classic;html=1;rounded=0;" parent="1" edge="1">
          <mxGeometry relative="1" as="geometry">
            <mxPoint x="305" y="960" as="sourcePoint" />
            <mxPoint x="145" y="960" as="targetPoint" />
            <Array as="points" />
          </mxGeometry>
        </mxCell>
        <mxCell id="aBUU-kbgYv9Q9nRCDCs9-69" value="" style="endArrow=none;html=1;rounded=0;" parent="1" edge="1">
          <mxGeometry width="50" height="50" relative="1" as="geometry">
            <mxPoint x="40" y="1060" as="sourcePoint" />
            <mxPoint x="760" y="1060" as="targetPoint" />
          </mxGeometry>
        </mxCell>
        <mxCell id="aBUU-kbgYv9Q9nRCDCs9-70" value="" style="html=1;points=[];perimeter=orthogonalPerimeter;" parent="1" vertex="1">
          <mxGeometry x="300" y="230" width="10" height="790" as="geometry" />
        </mxCell>
        <mxCell id="aBUU-kbgYv9Q9nRCDCs9-72" value="" style="html=1;points=[];perimeter=orthogonalPerimeter;" parent="1" vertex="1">
          <mxGeometry x="135" y="230" width="10" height="800" as="geometry" />
        </mxCell>
        <mxCell id="aBUU-kbgYv9Q9nRCDCs9-73" value="" style="endArrow=none;dashed=1;html=1;rounded=0;" parent="1" target="aBUU-kbgYv9Q9nRCDCs9-72" edge="1">
          <mxGeometry width="50" height="50" relative="1" as="geometry">
            <mxPoint x="140" y="1090" as="sourcePoint" />
            <mxPoint x="140" y="130" as="targetPoint" />
          </mxGeometry>
        </mxCell>
        <mxCell id="aBUU-kbgYv9Q9nRCDCs9-74" value="" style="html=1;points=[];perimeter=orthogonalPerimeter;" parent="1" vertex="1">
          <mxGeometry x="470" y="320" width="10" height="670" as="geometry" />
        </mxCell>
        <mxCell id="7ucc2qCZlJX0jETOO9YV-3" value="Afficher les groupes" style="endArrow=classic;html=1;rounded=0;entryX=1.26;entryY=0.147;entryDx=0;entryDy=0;entryPerimeter=0;" parent="1" edge="1" target="aBUU-kbgYv9Q9nRCDCs9-74">
          <mxGeometry relative="1" as="geometry">
            <mxPoint x="660" y="421" as="sourcePoint" />
            <mxPoint x="490" y="420" as="targetPoint" />
            <Array as="points" />
          </mxGeometry>
        </mxCell>
        <mxCell id="vP34iRBpGu18oOiWEtAc-13" value="" style="endArrow=none;dashed=1;html=1;rounded=0;startArrow=none;" edge="1" parent="1" source="vP34iRBpGu18oOiWEtAc-14">
          <mxGeometry width="50" height="50" relative="1" as="geometry">
            <mxPoint x="669.52" y="1160" as="sourcePoint" />
            <mxPoint x="669.52" y="140" as="targetPoint" />
          </mxGeometry>
        </mxCell>
        <mxCell id="vP34iRBpGu18oOiWEtAc-14" value="" style="html=1;points=[];perimeter=orthogonalPerimeter;" vertex="1" parent="1">
          <mxGeometry x="665" y="370" width="10" height="610" as="geometry" />
        </mxCell>
        <mxCell id="vP34iRBpGu18oOiWEtAc-15" value="" style="endArrow=none;dashed=1;html=1;rounded=0;startArrow=none;" edge="1" parent="1" target="vP34iRBpGu18oOiWEtAc-14">
          <mxGeometry width="50" height="50" relative="1" as="geometry">
            <mxPoint x="670" y="1090" as="sourcePoint" />
            <mxPoint x="669.52" y="140" as="targetPoint" />
          </mxGeometry>
        </mxCell>
        <mxCell id="vP34iRBpGu18oOiWEtAc-18" value="" style="endArrow=classic;html=1;rounded=0;entryX=-0.367;entryY=0.705;entryDx=0;entryDy=0;entryPerimeter=0;" edge="1" parent="1">
          <mxGeometry relative="1" as="geometry">
            <mxPoint x="145" y="724.52" as="sourcePoint" />
            <mxPoint x="301.33000000000015" y="725.2699999999998" as="targetPoint" />
            <Array as="points">
              <mxPoint x="195.5" y="724.52" />
            </Array>
          </mxGeometry>
        </mxCell>
        <mxCell id="vP34iRBpGu18oOiWEtAc-19" value="Rédiger un&amp;nbsp;&lt;br&gt;méssage" style="edgeLabel;html=1;align=center;verticalAlign=middle;resizable=0;points=[];" vertex="1" connectable="0" parent="vP34iRBpGu18oOiWEtAc-18">
          <mxGeometry x="0.0281" y="-2" relative="1" as="geometry">
            <mxPoint as="offset" />
          </mxGeometry>
        </mxCell>
        <mxCell id="vP34iRBpGu18oOiWEtAc-20" value="" style="endArrow=classic;html=1;rounded=0;entryX=0.033;entryY=0.748;entryDx=0;entryDy=0;entryPerimeter=0;" edge="1" parent="1">
          <mxGeometry relative="1" as="geometry">
            <mxPoint x="139.67" y="780" as="sourcePoint" />
            <mxPoint x="300.00000000000017" y="780.2" as="targetPoint" />
            <Array as="points">
              <mxPoint x="190.17" y="780" />
            </Array>
          </mxGeometry>
        </mxCell>
        <mxCell id="vP34iRBpGu18oOiWEtAc-21" value="Cliquer sur&lt;br&gt;l&#39;icone&lt;br&gt;envoyer" style="edgeLabel;html=1;align=center;verticalAlign=middle;resizable=0;points=[];" vertex="1" connectable="0" parent="vP34iRBpGu18oOiWEtAc-20">
          <mxGeometry x="0.0281" y="-2" relative="1" as="geometry">
            <mxPoint as="offset" />
          </mxGeometry>
        </mxCell>
        <mxCell id="vP34iRBpGu18oOiWEtAc-22" value="" style="endArrow=classic;html=1;rounded=0;" edge="1" parent="1">
          <mxGeometry relative="1" as="geometry">
            <mxPoint x="310" y="820" as="sourcePoint" />
            <mxPoint x="470" y="820" as="targetPoint" />
            <Array as="points">
              <mxPoint x="360.5" y="820" />
            </Array>
          </mxGeometry>
        </mxCell>
        <mxCell id="vP34iRBpGu18oOiWEtAc-23" value="Démande d&#39;envoie&lt;br&gt;d&#39;un message" style="edgeLabel;html=1;align=center;verticalAlign=middle;resizable=0;points=[];" vertex="1" connectable="0" parent="vP34iRBpGu18oOiWEtAc-22">
          <mxGeometry x="0.0281" y="-2" relative="1" as="geometry">
            <mxPoint as="offset" />
          </mxGeometry>
        </mxCell>
      </root>
    </mxGraphModel>
  </diagram>
</mxfile>
